<svg width="512" height="336" xmlns="http://www.w3.org/2000/svg" xmlns:xlink="http://www.w3.org/1999/xlink">
  <defs>
    <path id="a" d="M.06.546H512V335.94H.06z"/>
  </defs>
  <g fill="none" fill-rule="evenodd">
    <mask id="b" fill="#fff">
      <use xlink:href="#a"/>
    </mask>
    <path fill="#F8F7F5" mask="url(#b)" d="M114.76 335.94h282.48V.55H114.76z"/>
    <path fill="#DA2524" mask="url(#b)" d="M0 335.995h114.759V.546H0z"/>
    <path fill="#DA2524" mask="url(#b)" d="M397.241.546v335.448H512V.546z"/>
    <path d="M309.569 207.03l52.383-29.932-12.02-6.01a8.827 8.827 0 0 1-4.802-9.063l3.911-29.322-22.177 6.452c-4.899 1.426-9.983-1.588-11.085-6.569l-2.124-9.6-20.823 24.37c-2.886 3.378-8.386.798-7.633-3.581l8.893-51.708-13.615 3.723a8.824 8.824 0 0 1-10.116-4.36l-14.337-26.871v-.04l-.01.02-.011-.02v.04L241.666 91.43a8.83 8.83 0 0 1-10.118 4.36l-13.615-3.723 8.893 51.708c.753 4.378-4.747 6.959-7.634 3.582l-20.823-24.37-2.124 9.6c-1.102 4.982-6.186 7.994-11.085 6.569l-22.177-6.452 3.911 29.322a8.828 8.828 0 0 1-4.802 9.063l-12.02 6.009 52.383 29.933a12.745 12.745 0 0 1 5.615 15.53l-4.478 11.977 44.885-3.832a4.172 4.172 0 0 1 4.525 4.279l-1.414 48.044h8.828L259 234.983a4.172 4.172 0 0 1 4.525-4.279l44.906 3.834-4.478-11.977a12.748 12.748 0 0 1 5.616-15.531" fill="#DA2524"/>
  </g>
</svg>
